<?plantuml 1.2026.2?><svg xmlns="http://www.w3.org/2000/svg" xmlns:xlink="http://www.w3.org/1999/xlink" contentStyleType="text/css" data-diagram-type="DESCRIPTION" height="652px" preserveAspectRatio="none" style="width:1079px;height:652px;background:#FFFFFF;" version="1.1" viewBox="0 0 1079 652" width="1079px" zoomAndPan="magnify"><title>Stem Agent &#8212; Component Architecture (Hexagonal)</title><defs/><g><g class="title" data-source-line="1"><text fill="#000000" font-family="Helvetica" font-size="14" font-weight="bold" lengthAdjust="spacing" textLength="347.7031" x="358.6484" y="20.7803">Stem Agent &#8212; Component Architecture (Hexagonal)</text></g><!--cluster core--><g class="cluster" data-qualified-name="core" data-source-line="22" id="ent0002"><path d="M416.5,41 L444.8398,41 A3.75,3.75 0 0 1 447.3398,43.5 L454.3398,59 L907.5,59 A2.5,2.5 0 0 1 910,61.5 L910,129.5 A2.5,2.5 0 0 1 907.5,132 L416.5,132 A2.5,2.5 0 0 1 414,129.5 L414,43.5 A2.5,2.5 0 0 1 416.5,41" fill="#EAF2FF" style="stroke:#334455;stroke-width:1.5;"/><line style="stroke:#334455;stroke-width:1.5;" x1="414" x2="454.3398" y1="59" y2="59"/><text fill="#000000" font-family="Helvetica" font-size="12" font-weight="bold" lengthAdjust="spacing" textLength="27.3398" x="418" y="52.2402">Core</text></g><!--cluster phases--><g class="cluster" data-qualified-name="phases" data-source-line="33" id="ent0010"><path d="M233.5,164 L276.5293,164 A3.75,3.75 0 0 1 279.0293,166.5 L286.0293,182 L640.5,182 A2.5,2.5 0 0 1 643,184.5 L643,256.5 A2.5,2.5 0 0 1 640.5,259 L233.5,259 A2.5,2.5 0 0 1 231,256.5 L231,166.5 A2.5,2.5 0 0 1 233.5,164" fill="#F2FBE8" style="stroke:#334455;stroke-width:1.5;"/><line style="stroke:#334455;stroke-width:1.5;" x1="231" x2="286.0293" y1="182" y2="182"/><text fill="#000000" font-family="Helvetica" font-size="12" font-weight="bold" lengthAdjust="spacing" textLength="42.0293" x="235" y="175.2402">Phases</text></g><!--cluster ports--><g class="cluster" data-qualified-name="ports" data-source-line="43" id="ent0018"><path d="M886.5,305 L984.8418,305 A3.75,3.75 0 0 1 987.3418,307.5 L994.3418,323 L1021.5,323 A2.5,2.5 0 0 1 1024,325.5 L1024,489.5 A2.5,2.5 0 0 1 1021.5,492 L886.5,492 A2.5,2.5 0 0 1 884,489.5 L884,307.5 A2.5,2.5 0 0 1 886.5,305" fill="#E8F0F8" style="stroke:#334455;stroke-width:1.5;"/><line style="stroke:#334455;stroke-width:1.5;" x1="884" x2="994.3418" y1="323" y2="323"/><text fill="#000000" font-family="Helvetica" font-size="12" font-weight="bold" lengthAdjust="spacing" textLength="97.3418" x="888" y="316.2402">Ports (Protocols)</text></g><!--cluster caps--><g class="cluster" data-qualified-name="caps" data-source-line="53" id="ent0023"><path d="M8.5,299 L76.8535,299 A3.75,3.75 0 0 1 79.3535,301.5 L86.3535,317 L409.5,317 A2.5,2.5 0 0 1 412,319.5 L412,403.5 A2.5,2.5 0 0 1 409.5,406 L8.5,406 A2.5,2.5 0 0 1 6,403.5 L6,301.5 A2.5,2.5 0 0 1 8.5,299" fill="#FFF4E0" style="stroke:#334455;stroke-width:1.5;"/><line style="stroke:#334455;stroke-width:1.5;" x1="6" x2="86.3535" y1="317" y2="317"/><text fill="#000000" font-family="Helvetica" font-size="12" font-weight="bold" lengthAdjust="spacing" textLength="67.3535" x="10" y="310.2402">Capabilities</text></g><!--cluster eval--><g class="cluster" data-qualified-name="eval" data-source-line="61" id="ent0029"><path d="M454.5,305 L516.1797,305 A3.75,3.75 0 0 1 518.6797,307.5 L525.6797,323 L829.5,323 A2.5,2.5 0 0 1 832,325.5 L832,495.5 A2.5,2.5 0 0 1 829.5,498 L454.5,498 A2.5,2.5 0 0 1 452,495.5 L452,307.5 A2.5,2.5 0 0 1 454.5,305" fill="#FCE8E8" style="stroke:#334455;stroke-width:1.5;"/><line style="stroke:#334455;stroke-width:1.5;" x1="452" x2="525.6797" y1="323" y2="323"/><text fill="#000000" font-family="Helvetica" font-size="12" font-weight="bold" lengthAdjust="spacing" textLength="60.6797" x="456" y="316.2402">Evaluation</text></g><!--cluster adapters--><g class="cluster" data-qualified-name="adapters" data-source-line="71" id="ent0037"><path d="M794.5,538 L847.5137,538 A3.75,3.75 0 0 1 850.0137,540.5 L857.0137,556 L1069.5,556 A2.5,2.5 0 0 1 1072,558.5 L1072,642.5 A2.5,2.5 0 0 1 1069.5,645 L794.5,645 A2.5,2.5 0 0 1 792,642.5 L792,540.5 A2.5,2.5 0 0 1 794.5,538" fill="#F8E8F0" style="stroke:#334455;stroke-width:1.5;"/><line style="stroke:#334455;stroke-width:1.5;" x1="792" x2="857.0137" y1="556" y2="556"/><text fill="#000000" font-family="Helvetica" font-size="12" font-weight="bold" lengthAdjust="spacing" textLength="52.0137" x="796" y="549.2402">Adapters</text></g><!--entity A--><g class="entity" data-qualified-name="core.A" data-source-line="23" id="ent0003"><rect fill="#F5F7FA" height="44" rx="3" ry="3" style="stroke:#334455;stroke-width:0.5;" width="84.0254" x="429.99" y="72"/><text fill="#000000" font-family="Helvetica" font-size="12" lengthAdjust="spacing" textLength="59.3672" x="439.99" y="91.2402">StemAgent</text><text fill="#000000" font-family="Helvetica" font-size="12" lengthAdjust="spacing" textLength="64.0254" x="439.99" y="103.2402">orchestrator</text></g><!--entity SM--><g class="entity" data-qualified-name="core.SM" data-source-line="24" id="ent0004"><rect fill="#F5F7FA" height="32" rx="3" ry="3" style="stroke:#334455;stroke-width:0.5;" width="93.377" x="534.31" y="78"/><text fill="#000000" font-family="Helvetica" font-size="12" lengthAdjust="spacing" textLength="73.377" x="544.31" y="97.2402">StateMachine</text></g><!--entity J--><g class="entity" data-qualified-name="core.J" data-source-line="25" id="ent0005"><rect fill="#F5F7FA" height="32" rx="3" ry="3" style="stroke:#334455;stroke-width:0.5;" width="108.7227" x="647.64" y="78"/><text fill="#000000" font-family="Helvetica" font-size="12" lengthAdjust="spacing" textLength="88.7227" x="657.64" y="97.2402">EvolutionJournal</text></g><!--entity CFG--><g class="entity" data-qualified-name="core.CFG" data-source-line="26" id="ent0006"><rect fill="#F5F7FA" height="44" rx="3" ry="3" style="stroke:#334455;stroke-width:0.5;" width="118.0391" x="775.98" y="72"/><text fill="#000000" font-family="Helvetica" font-size="12" lengthAdjust="spacing" textLength="34.6875" x="785.98" y="91.2402">Config</text><text fill="#000000" font-family="Helvetica" font-size="12" lengthAdjust="spacing" textLength="98.0391" x="785.98" y="103.2402">(pydantic-settings)</text></g><!--entity S--><g class="entity" data-qualified-name="phases.S" data-source-line="34" id="ent0011"><rect fill="#F5F7FA" height="32" rx="3" ry="3" style="stroke:#334455;stroke-width:0.5;" width="63.3652" x="255.32" y="203"/><text fill="#000000" font-family="Helvetica" font-size="12" lengthAdjust="spacing" textLength="43.3652" x="265.32" y="222.2402">Sensing</text></g><!--entity P--><g class="entity" data-qualified-name="phases.P" data-source-line="35" id="ent0012"><rect fill="#F5F7FA" height="32" rx="3" ry="3" style="stroke:#334455;stroke-width:0.5;" width="66.7051" x="338.65" y="203"/><text fill="#000000" font-family="Helvetica" font-size="12" lengthAdjust="spacing" textLength="46.7051" x="348.65" y="222.2402">Planning</text></g><!--entity SP--><g class="entity" data-qualified-name="phases.SP" data-source-line="36" id="ent0013"><rect fill="#F5F7FA" height="32" rx="3" ry="3" style="stroke:#334455;stroke-width:0.5;" width="94.0449" x="424.98" y="203"/><text fill="#000000" font-family="Helvetica" font-size="12" lengthAdjust="spacing" textLength="74.0449" x="434.98" y="222.2402">Specialization</text></g><!--entity V--><g class="entity" data-qualified-name="phases.V" data-source-line="37" id="ent0014"><rect fill="#F5F7FA" height="32" rx="3" ry="3" style="stroke:#334455;stroke-width:0.5;" width="72.7051" x="538.65" y="203"/><text fill="#000000" font-family="Helvetica" font-size="12" lengthAdjust="spacing" textLength="52.7051" x="548.65" y="222.2402">Validation</text></g><!--entity LP--><g class="entity" data-qualified-name="ports.LP" data-source-line="44" id="ent0019"><rect fill="#F5F7FA" height="32" rx="3" ry="3" style="stroke:#334455;stroke-width:0.5;" width="65.3516" x="908.32" y="344"/><text fill="#000000" font-family="Helvetica" font-size="12" lengthAdjust="spacing" textLength="45.3516" x="918.32" y="363.2402">LLMPort</text></g><!--entity STP--><g class="entity" data-qualified-name="ports.STP" data-source-line="45" id="ent0020"><rect fill="#F5F7FA" height="32" rx="3" ry="3" style="stroke:#334455;stroke-width:0.5;" width="84.0371" x="907.98" y="436"/><text fill="#000000" font-family="Helvetica" font-size="12" lengthAdjust="spacing" textLength="64.0371" x="917.98" y="455.2402">StoragePort</text></g><!--entity R--><g class="entity" data-qualified-name="caps.R" data-source-line="54" id="ent0024"><rect fill="#F5F7FA" height="32" rx="3" ry="3" style="stroke:#334455;stroke-width:0.5;" width="116.7031" x="29.65" y="344"/><text fill="#000000" font-family="Helvetica" font-size="12" lengthAdjust="spacing" textLength="96.7031" x="39.65" y="363.2402">CapabilityRegistry</text></g><!--entity PL--><g class="entity" data-qualified-name="caps.PL" data-source-line="55" id="ent0025"><rect fill="#F5F7FA" height="32" rx="3" ry="3" style="stroke:#334455;stroke-width:0.5;" width="95.3574" x="166.32" y="344"/><text fill="#000000" font-family="Helvetica" font-size="12" lengthAdjust="spacing" textLength="75.3574" x="176.32" y="363.2402">PromptLibrary</text></g><!--entity T--><g class="entity" data-qualified-name="caps.T" data-source-line="56" id="ent0026"><rect fill="#F5F7FA" height="44" rx="3" ry="3" style="stroke:#334455;stroke-width:0.5;" width="98.0293" x="281.99" y="338"/><text fill="#000000" font-family="Helvetica" font-size="12" lengthAdjust="spacing" textLength="78.0293" x="291.99" y="357.2402">Static Analysis</text><text fill="#000000" font-family="Helvetica" font-size="12" lengthAdjust="spacing" textLength="29.3438" x="291.99" y="369.2402">Tools</text></g><!--entity B--><g class="entity" data-qualified-name="eval.B" data-source-line="62" id="ent0030"><rect fill="#F5F7FA" height="32" rx="3" ry="3" style="stroke:#334455;stroke-width:0.5;" width="123.3828" x="563.31" y="344"/><text fill="#000000" font-family="Helvetica" font-size="12" lengthAdjust="spacing" textLength="103.3828" x="573.31" y="363.2402">Benchmark Runner</text></g><!--entity M--><g class="entity" data-qualified-name="eval.M" data-source-line="63" id="ent0031"><rect fill="#F5F7FA" height="44" rx="3" ry="3" style="stroke:#334455;stroke-width:0.5;" width="90.6934" x="579.65" y="430"/><text fill="#000000" font-family="Helvetica" font-size="12" lengthAdjust="spacing" textLength="70.6934" x="589.65" y="449.2402">Classification</text><text fill="#000000" font-family="Helvetica" font-size="12" lengthAdjust="spacing" textLength="38.666" x="589.65" y="461.2402">Metrics</text></g><!--entity C--><g class="entity" data-qualified-name="eval.C" data-source-line="64" id="ent0032"><rect fill="#F5F7FA" height="32" rx="3" ry="3" style="stroke:#334455;stroke-width:0.5;" width="83.3574" x="476.32" y="436"/><text fill="#000000" font-family="Helvetica" font-size="12" lengthAdjust="spacing" textLength="63.3574" x="486.32" y="455.2402">Comparator</text></g><!--entity F--><g class="entity" data-qualified-name="eval.F" data-source-line="65" id="ent0033"><rect fill="#F5F7FA" height="44" rx="3" ry="3" style="stroke:#334455;stroke-width:0.5;" width="109.707" x="690.15" y="430"/><text fill="#000000" font-family="Helvetica" font-size="12" lengthAdjust="spacing" textLength="78.6914" x="700.15" y="449.2402">Fixture Corpus</text><text fill="#000000" font-family="Helvetica" font-size="12" lengthAdjust="spacing" textLength="89.707" x="700.15" y="461.2402">(20 + 8 samples)</text></g><!--entity OA--><g class="entity" data-qualified-name="adapters.OA" data-source-line="72" id="ent0038"><rect fill="#F5F7FA" height="44" rx="3" ry="3" style="stroke:#334455;stroke-width:0.5;" width="106.0566" x="823.97" y="577"/><text fill="#000000" font-family="Helvetica" font-size="12" lengthAdjust="spacing" textLength="86.0566" x="833.97" y="596.2402">OpenAI Adapter</text><text fill="#000000" font-family="Helvetica" font-size="12" lengthAdjust="spacing" textLength="85.0195" x="833.97" y="608.2402">(retry + timeout)</text></g><!--entity JS--><g class="entity" data-qualified-name="adapters.JS" data-source-line="73" id="ent0039"><rect fill="#F5F7FA" height="32" rx="3" ry="3" style="stroke:#334455;stroke-width:0.5;" width="97.3672" x="950.32" y="583"/><text fill="#000000" font-family="Helvetica" font-size="12" lengthAdjust="spacing" textLength="77.3672" x="960.32" y="602.2402">JSON Storage</text></g><!--link A to SM--><!--link SM to J--><!--link J to CFG--><!--link S to P--><!--link P to SP--><!--link SP to V--><!--link LP to STP--><!--link phases to ports--><!--link R to PL--><!--link PL to T--><!--link B to M--><!--link B to M--><g class="link" data-entity-1="ent0030" data-entity-2="ent0031" data-link-type="dependency" data-source-line="94" id="lnk52"><path d="M630.8,376.27 C632.8,390.91 633.6006,407.1862 632.0606,423.5962" fill="none" id="B-to-M" style="stroke:#445566;stroke-width:1.2;"/><polygon fill="#445566" points="631.5,429.57,636.3234,420.9831,631.9672,424.5919,628.3584,420.2356,631.5,429.57" style="stroke:#445566;stroke-width:1.2;"/></g><!--link M to C--><!--link C to F--><!--link OA to JS--><!--link caps to eval--><!--link eval to adapters--><!--link A to S--><g class="link" data-entity-1="ent0003" data-entity-2="ent0011" data-link-type="dependency" data-source-line="83" id="lnk43"><path d="M429.72,102.81 C399.05,110.21 358.03,123.91 329,148 C311.33,162.66 301.5079,181.2575 294.9779,197.0075" fill="none" id="A-to-S" style="stroke:#445566;stroke-width:1.2;"/><polygon fill="#445566" points="292.68,202.55,299.8219,195.7682,294.595,197.9312,292.4319,192.7043,292.68,202.55" style="stroke:#445566;stroke-width:1.2;"/></g><!--link A to P--><g class="link" data-entity-1="ent0003" data-entity-2="ent0012" data-link-type="dependency" data-source-line="84" id="lnk44"><path d="M446.15,116.34 C435.84,125.51 424.25,136.71 415,148 C400.72,165.43 390.523,182.721 382.633,197.451" fill="none" id="A-to-P" style="stroke:#445566;stroke-width:1.2;"/><polygon fill="#445566" points="379.8,202.74,387.5756,196.6951,382.1609,198.3325,380.5235,192.9178,379.8,202.74" style="stroke:#445566;stroke-width:1.2;"/></g><!--link A to SP--><g class="link" data-entity-1="ent0003" data-entity-2="ent0013" data-link-type="dependency" data-source-line="85" id="lnk45"><path d="M472,116.43 C472,141.07 472,174.91 472,196.65" fill="none" id="A-to-SP" style="stroke:#445566;stroke-width:1.2;"/><polygon fill="#445566" points="472,202.65,476,193.65,472,197.65,468,193.65,472,202.65" style="stroke:#445566;stroke-width:1.2;"/></g><!--link A to V--><g class="link" data-entity-1="ent0003" data-entity-2="ent0014" data-link-type="dependency" data-source-line="86" id="lnk46"><path d="M497.68,116.48 C507.96,125.68 519.58,136.85 529,148 C543.74,165.44 554.6728,182.6396 563.2628,197.3396" fill="none" id="A-to-V" style="stroke:#445566;stroke-width:1.2;"/><polygon fill="#445566" points="566.29,202.52,565.2028,192.7313,563.7674,198.203,558.2957,196.7676,566.29,202.52" style="stroke:#445566;stroke-width:1.2;"/></g><!--link P to R--><g class="link" data-entity-1="ent0012" data-entity-2="ent0024" data-link-type="dependency" data-source-line="89" id="lnk47"><path d="M364.72,235.41 C357.62,248.51 345.48,266.49 329,275 C294.81,292.66 190.76,266.48 156,283 C128.65,295.99 110.611,320.4095 99.581,338.5995" fill="none" id="P-to-R" style="stroke:#445566;stroke-width:1.2;"/><polygon fill="#445566" points="96.47,343.73,104.5568,338.1083,99.0625,339.4546,97.7162,333.9603,96.47,343.73" style="stroke:#445566;stroke-width:1.2;"/></g><!--link SP to PL--><g class="link" data-entity-1="ent0013" data-entity-2="ent0025" data-link-type="dependency" data-source-line="90" id="lnk48"><path d="M461.11,235.46 C450.88,248.58 434.28,266.58 415,275 C385.83,287.74 300.12,268.09 272,283 C247.07,296.21 232.308,320.001 223.438,338.121" fill="none" id="SP-to-PL" style="stroke:#445566;stroke-width:1.2;"/><polygon fill="#445566" points="220.8,343.51,228.3496,337.1852,222.9983,339.0192,221.1643,333.6679,220.8,343.51" style="stroke:#445566;stroke-width:1.2;"/></g><!--link V to T--><g class="link" data-entity-1="ent0014" data-entity-2="ent0026" data-link-type="dependency" data-source-line="91" id="lnk49"><path d="M566.92,235.4 C559.13,248.49 546.03,266.46 529,275 C500.15,289.46 412.19,267.29 384,283 C362.5,294.98 350.3,314.3495 341.92,332.3695" fill="none" id="V-to-T" style="stroke:#445566;stroke-width:1.2;"/><polygon fill="#445566" points="339.39,337.81,346.812,331.336,341.4984,333.2763,339.5581,327.9626,339.39,337.81" style="stroke:#445566;stroke-width:1.2;"/></g><!--link V to B--><g class="link" data-entity-1="ent0014" data-entity-2="ent0030" data-link-type="dependency" data-source-line="92" id="lnk50"><path d="M580.54,235.41 C590.15,262.13 607.7684,311.1144 617.3984,337.8744" fill="none" id="V-to-B" style="stroke:#445566;stroke-width:1.2;"/><polygon fill="#445566" points="619.43,343.52,620.1462,333.6972,617.737,338.8154,612.6188,336.4061,619.43,343.52" style="stroke:#445566;stroke-width:1.2;"/></g><!--link V to C--><g class="link" data-entity-1="ent0014" data-entity-2="ent0032" data-link-type="dependency" data-source-line="93" id="lnk51"><path d="M569.01,235.36 C564.22,248 557.58,266.48 553,283 C537.63,338.41 526.537,399.8434 521.517,429.6334" fill="none" id="V-to-C" style="stroke:#445566;stroke-width:1.2;"/><polygon fill="#445566" points="520.52,435.55,525.9599,427.3398,521.3509,430.6195,518.0711,426.0104,520.52,435.55" style="stroke:#445566;stroke-width:1.2;"/></g><!--link B to F--><g class="link" data-entity-1="ent0030" data-entity-2="ent0033" data-link-type="dependency" data-source-line="95" id="lnk53"><path d="M639.52,376.46 C652.3,389.56 671.82,408.32 691,422 C694.64,424.59 693.4111,424.0065 697.3811,426.4165" fill="none" id="B-to-F" style="stroke:#445566;stroke-width:1.2;"/><polygon fill="#445566" points="702.51,429.53,696.8923,421.4404,698.2359,426.9354,692.7409,428.279,702.51,429.53" style="stroke:#445566;stroke-width:1.2;"/></g><!--link V to LP--><g class="link" data-entity-1="ent0014" data-entity-2="ent0019" data-link-type="dependency" data-source-line="98" id="lnk54"><path d="M581.47,235.42 C587.88,248.53 599.05,266.51 615,275 C636.79,286.59 813.68,274.92 837,283 C873.13,295.52 903.1096,321.0256 921.8796,339.3756" fill="none" id="V-to-LP" style="stroke:#445566;stroke-width:1.2;stroke-dasharray:7,7;"/><polygon fill="#445566" points="926.17,343.57,922.5307,334.4182,922.5947,340.0747,916.9382,340.1387,926.17,343.57" style="stroke:#445566;stroke-width:1.2;"/></g><!--link A to STP--><g class="link" data-entity-1="ent0003" data-entity-2="ent0020" data-link-type="dependency" data-source-line="101" id="lnk55"><path d="M490.62,116.41 C499.72,125.35 511.41,134.84 524,140 C549.55,150.47 620.95,142.45 648,148 C823.98,184.13 925.33,136.28 1029,283 C1064.65,333.45 1064.36,371.35 1029,422 C1020.47,434.22 1011.9496,439.6187 997.8696,443.7287" fill="none" id="A-to-STP" style="stroke:#445566;stroke-width:1.2;stroke-dasharray:7,7;"/><polygon fill="#445566" points="992.11,445.41,1001.8703,446.7279,996.9097,444.009,999.6286,439.0484,992.11,445.41" style="stroke:#445566;stroke-width:1.2;"/></g><!--reverse link LP to OA--><g class="link" data-entity-1="ent0019" data-entity-2="ent0038" data-link-type="extension" data-source-line="104" id="lnk56"><path d="M917.8369,390.8352 C907.8269,404.1952 905.08,410.05 898,430 C880.12,480.42 877.05,544.06 876.77,576.64" fill="none" id="LP-backto-OA" style="stroke:#445566;stroke-width:1.2;stroke-dasharray:7,7;"/><polygon fill="none" points="928.63,376.43,913.0352,387.2375,922.6386,394.4329,928.63,376.43" style="stroke:#445566;stroke-width:1.2;"/></g><!--reverse link STP to JS--><g class="link" data-entity-1="ent0020" data-entity-2="ent0039" data-link-type="extension" data-source-line="105" id="lnk57"><path d="M960.9139,485.2922 C970.3039,513.0722 984.33,554.58 993.77,582.52" fill="none" id="STP-backto-JS" style="stroke:#445566;stroke-width:1.2;stroke-dasharray:7,7;"/><polygon fill="none" points="955.15,468.24,955.2298,487.2135,966.5979,483.3709,955.15,468.24" style="stroke:#445566;stroke-width:1.2;"/></g><?plantuml-src fLPVZzeu47_Ffx2MXmDTGIoxsqFLgL90v7ehA151lDpUWpSnmIBOaUsmfTTA_H3zXFqaD-CaR1pkfPmKoSbuPZn_VlDp33SP8v5X1-AdJ1ZouzjtCfM7N0hyybMyuuR5fb2CT3-mJpILWcOzpzDxBdAgw87e7Kta2nSfsT9CiyPEmhQqo4mWXVb83unyODcH6HxJ_zQ9-6T6RaUDpRWE938d25D185IaMVECiupyun4oeV4-LR8GoLHcKf5Ey13y5lYu8rN2L2Mzkty0qQhKKu8fyjRxsd1AbP8lwnsFzu9fJMu7e_PcvUZ-uMrZ9uVJQLf5SdcUpT4cyYopn3bGo8HfbfFHi9aQ5NiKtWyzxnVou_ktdteWlHTo-mwQYQrB53yorVjfBrwTqmtwkI5KGrF0OMVc1wCWiAc-jk06WMHnz2GaG8TfewYHojhvRLLgs882laJfDrgu2hEZp0h3fNYKXGBGMQL7LsSgnPQdJwARdn8g05fzpOm1BEgULPy6Vu21J_f_xNYICF6twfVdH0j7XcuV7GbQVhswxgDt9DnHpJJvbOHI6KqqJw3lftAzlWkbLvjRNXxGWJvCPkEBJZ2XeGvbPTsjCAD2r7jXoondCQSP_qonygLrIsK3sydhzWQhwPGEzKEtv2YANDa6o_kQborIDrJIo5XcLVjoA-tCni4mkCXmFb-WbLMSjzC0q87VytwqHeLv8uAaRuMsnG5WbLLzCfAO7L0DJtU6o6tTHYciM2EDuLnwLVMR6TbehuRC7OmgpUappxZXuFaBcHrfLjX2muUVqDmmfV_F13VSbvDCSyHF4DpFXktgdfLFAvPocEEJDLcreAI0eSsSFojQAOJpop7dCV5XW4-QwoUnbj1Ugxf63dQHWyRXt96j7PoyriIwOF096Knduyi9c30HxmvKxScg4C3nrc3IoZAZMlCjN4deyaaic54yBiDRjAdcWBHSizdKtGtu9tj70alc1MJP7GrXzCS8c3nZ5Pm3l1USvF0CbudGxzIH14u1QXnOXxG6HISOuv2qIx3CcV3_hB43KId8xmI16NvWiZ1bMCiMCpz6ou-acg2IT950bYwBWWp2iWXgYh4XdkrAKrh7UTLm-7ZVNe5xE6lPk8E8lGBFjDc5VnP1k81vLqZOFG_owxy7hYpNiFwkNpRei6A3GWCL53aEFFxtQAQEFBvqUjVpGckxygBo1G2-iI_hQfrKwzIRs7LHhK7Zj8H16nEae8hox4-QPQWtv8KRk47B7Dx0VmI9bTJ8_1ey3mRlaHelAc4TMb9h42NaYVh8Yc1mvXkE03xWps39njqY9riO-p93fuB0hxz_6GmGKE2bV0US_0i0?></g></svg>