<?plantuml 1.2026.2?><svg xmlns="http://www.w3.org/2000/svg" xmlns:xlink="http://www.w3.org/1999/xlink" contentStyleType="text/css" data-diagram-type="STATE" height="351px" preserveAspectRatio="none" style="width:822px;height:351px;background:#FFFFFF;" version="1.1" viewBox="0 0 822 351" width="822px" zoomAndPan="magnify"><defs/><g><g class="start_entity" data-qualified-name=".start." data-source-line="15" id="ent0002"><ellipse cx="16" cy="181.8" fill="#222222" rx="10" ry="10" style="stroke:#222222;stroke-width:1;"/></g><rect fill="#F5F7FA" height="40" rx="12.5" ry="12.5" style="stroke:#334455;stroke-width:0.5;" width="130" x="61" y="161.8"/><text fill="#000000" font-family="Helvetica" font-size="12" lengthAdjust="spacing" textLength="120" x="66" y="185.0402">UNDIFFERENTIATED</text><rect fill="#F5F7FA" height="40" rx="12.5" ry="12.5" style="stroke:#334455;stroke-width:0.5;" width="64.0117" x="225.99" y="161.8"/><text fill="#000000" font-family="Helvetica" font-size="12" lengthAdjust="spacing" textLength="54.0117" x="230.99" y="185.0402">SENSING</text><rect fill="#F5F7FA" height="40" rx="12.5" ry="12.5" style="stroke:#334455;stroke-width:0.5;" width="117.332" x="325.33" y="161.8"/><text fill="#000000" font-family="Helvetica" font-size="12" lengthAdjust="spacing" textLength="107.332" x="330.33" y="185.0402">DIFFERENTIATING</text><rect fill="#F5F7FA" height="40" rx="12.5" ry="12.5" style="stroke:#334455;stroke-width:0.5;" width="81.3496" x="497.33" y="161.8"/><text fill="#000000" font-family="Helvetica" font-size="12" lengthAdjust="spacing" textLength="71.3496" x="502.33" y="185.0402">VALIDATING</text><rect fill="#F5F7FA" height="40" rx="12.5" ry="12.5" style="stroke:#334455;stroke-width:0.5;" width="88.0234" x="727.99" y="161.8"/><text fill="#000000" font-family="Helvetica" font-size="12" lengthAdjust="spacing" textLength="78.0234" x="732.99" y="185.0402">SPECIALIZED</text><rect fill="#F5F7FA" height="40" rx="12.5" ry="12.5" style="stroke:#334455;stroke-width:0.5;" width="80.0078" x="735" y="233.8"/><text fill="#000000" font-family="Helvetica" font-size="12" lengthAdjust="spacing" textLength="70.0078" x="740" y="257.0402">EXECUTING</text><g class="end_entity" data-qualified-name=".end." data-source-line="22" id="ent0015"><ellipse cx="766" cy="325.8" fill="none" rx="11" ry="11" style="stroke:#222222;stroke-width:1;"/><ellipse cx="766" cy="325.8" fill="#222222" rx="6" ry="6" style="stroke:#222222;stroke-width:1;"/></g><rect fill="#F5F7FA" height="40" rx="12.5" ry="12.5" style="stroke:#334455;stroke-width:0.5;" width="74.0254" x="416.99" y="305.8"/><text fill="#000000" font-family="Helvetica" font-size="12" lengthAdjust="spacing" textLength="64.0254" x="421.99" y="329.0402">ROLLBACK</text><rect fill="#F5F7FA" height="40" rx="12.5" ry="12.5" style="stroke:#334455;stroke-width:0.5;" width="52.0117" x="650.99" y="305.8"/><text fill="#000000" font-family="Helvetica" font-size="12" lengthAdjust="spacing" textLength="42.0117" x="655.99" y="329.0402">FAILED</text><g class="entity" data-qualified-name="GMN2" data-source-line="31" id="ent0003"><path d="M441.01,6 L441.01,100.7969 A0,0 0 0 0 441.01,100.7969 L534,100.7969 L538,161.33 L542,100.7969 L634.9905,100.7969 A0,0 0 0 0 634.9905,100.7969 L634.9905,16 L624.9905,6 L441.01,6 A0,0 0 0 0 441.01,6" fill="#FEFFDD" style="stroke:#181818;stroke-width:0.5;"/><path d="M624.9905,6 L624.9905,16 L634.9905,16 L624.9905,6" fill="#FEFFDD" style="stroke:#181818;stroke-width:0.5;"/><text fill="#000000" font-family="sans-serif" font-size="12" lengthAdjust="spacing" textLength="134.2383" x="447.01" y="22.6016">Guards evaluated here:</text><text fill="#000000" font-family="sans-serif" font-size="12" lengthAdjust="spacing" textLength="124.459" x="447.01" y="36.7344">&#8226; f1_above_threshold</text><text fill="#000000" font-family="sans-serif" font-size="12" lengthAdjust="spacing" textLength="172.9805" x="447.01" y="50.8672">&#8226; improvement_over_baseline</text><text fill="#000000" font-family="sans-serif" font-size="12" lengthAdjust="spacing" textLength="169.0313" x="447.01" y="65">&#8226; rollback_budget_remaining</text><text fill="#000000" font-family="sans-serif" font-size="12" lengthAdjust="spacing" textLength="155.9004" x="447.01" y="79.1328">Failures land in the journal</text><text fill="#000000" font-family="sans-serif" font-size="12" lengthAdjust="spacing" textLength="156.5859" x="447.01" y="93.2656">as GUARD_FAILURE events.</text></g><!--link *start* to UNDIFFERENTIATED--><g class="link" data-entity-1="ent0002" data-entity-2="ent0003" data-link-type="dependency" data-source-line="15" id="lnk4"><path d="M26.31,181.8 C37.74,181.8 43.16,181.8 54.58,181.8" fill="none" id="*start*-to-UNDIFFERENTIATED" style="stroke:#334455;stroke-width:1.3;"/><polygon fill="#334455" points="60.58,181.8,51.58,177.8,55.58,181.8,51.58,185.8,60.58,181.8" style="stroke:#334455;stroke-width:1.3;"/></g><!--link UNDIFFERENTIATED to SENSING--><g class="link" data-entity-1="ent0003" data-entity-2="ent0005" data-link-type="dependency" data-source-line="16" id="lnk6"><path d="M191.48,181.8 C202.83,181.8 208.18,181.8 219.52,181.8" fill="none" id="UNDIFFERENTIATED-to-SENSING" style="stroke:#334455;stroke-width:1.3;"/><polygon fill="#334455" points="225.52,181.8,216.52,177.8,220.52,181.8,216.52,185.8,225.52,181.8" style="stroke:#334455;stroke-width:1.3;"/></g><!--link SENSING to DIFFERENTIATING--><g class="link" data-entity-1="ent0005" data-entity-2="ent0007" data-link-type="dependency" data-source-line="17" id="lnk8"><path d="M290.48,181.8 C302.05,181.8 307.62,181.8 319.19,181.8" fill="none" id="SENSING-to-DIFFERENTIATING" style="stroke:#334455;stroke-width:1.3;"/><polygon fill="#334455" points="325.19,181.8,316.19,177.8,320.19,181.8,316.19,185.8,325.19,181.8" style="stroke:#334455;stroke-width:1.3;"/></g><!--link DIFFERENTIATING to VALIDATING--><g class="link" data-entity-1="ent0007" data-entity-2="ent0009" data-link-type="dependency" data-source-line="18" id="lnk10"><path d="M442.95,181.8 C461.02,181.8 473.09,181.8 491.16,181.8" fill="none" id="DIFFERENTIATING-to-VALIDATING" style="stroke:#334455;stroke-width:1.3;"/><polygon fill="#334455" points="497.16,181.8,488.16,177.8,492.16,181.8,488.16,185.8,497.16,181.8" style="stroke:#334455;stroke-width:1.3;"/></g><!--link VALIDATING to SPECIALIZED--><g class="link" data-entity-1="ent0009" data-entity-2="ent0011" data-link-type="dependency" data-source-line="20" id="lnk12"><path d="M579.03,181.8 C620.71,181.8 679.05,181.8 721.83,181.8" fill="none" id="VALIDATING-to-SPECIALIZED" style="stroke:#334455;stroke-width:1.3;"/><polygon fill="#334455" points="727.83,181.8,718.83,177.8,722.83,181.8,718.83,185.8,727.83,181.8" style="stroke:#334455;stroke-width:1.3;"/><text fill="#000000" font-family="sans-serif" font-size="12" lengthAdjust="spacing" textLength="96.1816" x="605.538" y="147.4016">F1 &gt;= threshold</text><text fill="#000000" font-family="sans-serif" font-size="12" font-weight="bold" lengthAdjust="spacing" textLength="27.5742" x="599.33" y="161.5344">AND</text><text fill="#000000" font-family="sans-serif" font-size="12" lengthAdjust="spacing" textLength="77.2266" x="630.7011" y="161.5344">improvement</text><text fill="#000000" font-family="sans-serif" font-size="12" lengthAdjust="spacing" textLength="77.0273" x="615.1152" y="175.6672">over baseline</text></g><!--link SPECIALIZED to EXECUTING--><g class="link" data-entity-1="ent0011" data-entity-2="ent0013" data-link-type="dependency" data-source-line="21" id="lnk14"><path d="M772.84,202.3 C773.25,212.01 773.4904,217.7156 773.9104,227.4156" fill="none" id="SPECIALIZED-to-EXECUTING" style="stroke:#334455;stroke-width:1.3;"/><polygon fill="#334455" points="774.17,233.41,777.7769,224.2454,773.9537,228.4147,769.7844,224.5915,774.17,233.41" style="stroke:#334455;stroke-width:1.3;"/></g><!--link EXECUTING to *end*--><g class="link" data-entity-1="ent0013" data-entity-2="ent0015" data-link-type="dependency" data-source-line="22" id="lnk16"><path d="M772.49,274.3 C770.81,287.41 769.4285,298.1994 768.0685,308.7294" fill="none" id="EXECUTING-to-*end*" style="stroke:#334455;stroke-width:1.3;"/><polygon fill="#334455" points="767.3,314.68,772.4199,306.2665,767.9405,309.7212,764.4858,305.2418,767.3,314.68" style="stroke:#334455;stroke-width:1.3;"/></g><!--link VALIDATING to ROLLBACK--><g class="link" data-entity-1="ent0009" data-entity-2="ent0017" data-link-type="dependency" data-source-line="24" id="lnk18"><path d="M531.13,202.13 C523.81,221.53 511.21,251.88 496,275.8 C489.39,286.2 484.7167,292.2528 476.9667,300.8528" fill="none" id="VALIDATING-to-ROLLBACK" style="stroke:#334455;stroke-width:1.3;"/><polygon fill="#334455" points="472.95,305.31,481.9464,301.302,476.2972,301.5957,476.0035,295.9465,472.95,305.31" style="stroke:#334455;stroke-width:1.3;"/><text fill="#000000" font-family="sans-serif" font-size="12" lengthAdjust="spacing" textLength="91.5645" x="519.08" y="251.4016">rollback budget</text><text fill="#000000" font-family="sans-serif" font-size="12" lengthAdjust="spacing" textLength="58.7402" x="535.4921" y="265.5344">remaining</text></g><!--reverse link DIFFERENTIATING to ROLLBACK--><g class="link" data-entity-1="ent0007" data-entity-2="ent0017" data-link-type="dependency" data-source-line="25" id="lnk20"><path d="M371.4694,207.79 C362.7394,227.59 355.83,253 369,275.8 C379.31,293.65 398.86,305.57 416.62,313.18" fill="none" id="DIFFERENTIATING-backto-ROLLBACK" style="stroke:#334455;stroke-width:1.3;"/><polygon fill="#334455" points="373.89,202.3,366.599,208.9213,371.8728,206.875,373.9191,212.1488,373.89,202.3" style="stroke:#334455;stroke-width:1.3;"/><text fill="#000000" font-family="sans-serif" font-size="12" lengthAdjust="spacing" textLength="72.082" x="394.4863" y="244.4016">re-plan with</text><text fill="#000000" font-family="sans-serif" font-size="12" lengthAdjust="spacing" textLength="121.0547" x="370" y="258.5344">cross-check-derived</text><text fill="#000000" font-family="sans-serif" font-size="12" lengthAdjust="spacing" textLength="71.8242" x="394.6152" y="272.6672">adjustments</text></g><!--link VALIDATING to FAILED--><g class="link" data-entity-1="ent0009" data-entity-2="ent0021" data-link-type="dependency" data-source-line="27" id="lnk22"><path d="M578.13,202.12 C592.08,210.06 607.18,220.14 619,231.8 C641.08,253.58 655.9443,279.9302 665.7243,300.1202" fill="none" id="VALIDATING-to-FAILED" style="stroke:#334455;stroke-width:1.3;"/><polygon fill="#334455" points="668.34,305.52,668.0164,295.6765,666.1603,301.0201,660.8166,299.164,668.34,305.52" style="stroke:#334455;stroke-width:1.3;"/><text fill="#000000" font-family="sans-serif" font-size="12" lengthAdjust="spacing" textLength="41.209" x="662.0806" y="251.4016">budget</text><text fill="#000000" font-family="sans-serif" font-size="12" lengthAdjust="spacing" textLength="60.4102" x="652.48" y="265.5344">exhausted</text></g><!--link FAILED to *end*--><g class="link" data-entity-1="ent0021" data-entity-2="ent0015" data-link-type="dependency" data-source-line="28" id="lnk23"><path d="M703.42,325.8 C720.53,325.8 731.64,325.8 748.76,325.8" fill="none" id="FAILED-to-*end*" style="stroke:#334455;stroke-width:1.3;"/><polygon fill="#334455" points="754.76,325.8,745.76,321.8,749.76,325.8,745.76,329.8,754.76,325.8" style="stroke:#334455;stroke-width:1.3;"/></g><?plantuml-src RLFRZjCm47ttLup42rJAIcLP8LLYfMoRb8Wge5uGWgB8ZQUDjuuTsKwxW93u5ZwDBs7ITfjiuIdEdECvCsV6RYjrnIqlmNdk4NumW3kURpVMr5eCZJ8MdiKtyUiuR11Z1TfJzFhL3OLYettAIuItg7RePSvFmPdyZj1_oNuorseKN9Yzr1jOS-MmWt1hpNvUo7ohqJdeNrrVWXtL5X6uvhNoNJrMI860PUM_4UnoAoilZMRiI-yh15Pk2X_SmY8T9N4SJQDqdeJpQCGk0orr5gMp91spqxS5kXSQmiL_I_mOJfBHaSFQSqVXGpHCAFwPP0SGz-7s3VZ2eYkC4alTwuNfgDS3MLRMxB14xPUQ3XPMtA6I6batmpbjz2aQBWvA0x2uaxX_dXk1BrWBdBbapjFQQ4wQujFtaybTE7pNf31AhMWrO5MB3L895aikDKsJdLb1NVrhp44-g1JNi9U-MEhS6kU2lC1y6z0-oHrIbrpSryutpRd_LXA7oUJWpwCyFXISRg1W9-XfCzhGEdjJWLbt1m0mhhaL3d37LKqhBw10YmC2_lpw3Uj-nbVaRNRs_mHqpCyQxxEpzqVyqPtiM5xMcaFFWKjLKpeW2mH8JSD5k3UrrLmHp1sC5-5qb3LzBAOHbTQuSCMGs4qRx2y0?></g></svg>