<?plantuml 1.2026.2?><svg xmlns="http://www.w3.org/2000/svg" xmlns:xlink="http://www.w3.org/1999/xlink" contentStyleType="text/css" data-diagram-type="STATE" height="389px" preserveAspectRatio="none" style="width:822px;height:389px;background:#FFFFFF;" version="1.1" viewBox="0 0 822 389" width="822px" zoomAndPan="magnify"><title>Stem Agent &#8212; Lifecycle States and Transitions</title><defs/><g><g class="title" data-source-line="1"><text fill="#000000" font-family="sans-serif" font-size="14" font-weight="bold" lengthAdjust="spacing" textLength="334.8652" x="236.5741" y="23.5352">Stem Agent &#8212; Lifecycle States and Transitions</text></g><g class="start_entity" data-qualified-name=".start." data-source-line="16" id="ent0002"><ellipse cx="16" cy="219.2883" fill="#222222" rx="10" ry="10" style="stroke:#222222;stroke-width:1;"/></g><rect fill="#F5F7FA" height="40" rx="12.5" ry="12.5" style="stroke:#334455;stroke-width:0.5;" width="130" x="61" y="199.2883"/><text fill="#000000" font-family="Helvetica" font-size="12" lengthAdjust="spacing" textLength="120" x="66" y="222.5285">UNDIFFERENTIATED</text><rect fill="#F5F7FA" height="40" rx="12.5" ry="12.5" style="stroke:#334455;stroke-width:0.5;" width="64.0117" x="225.99" y="199.2883"/><text fill="#000000" font-family="Helvetica" font-size="12" lengthAdjust="spacing" textLength="54.0117" x="230.99" y="222.5285">SENSING</text><rect fill="#F5F7FA" height="40" rx="12.5" ry="12.5" style="stroke:#334455;stroke-width:0.5;" width="117.332" x="325.33" y="199.2883"/><text fill="#000000" font-family="Helvetica" font-size="12" lengthAdjust="spacing" textLength="107.332" x="330.33" y="222.5285">DIFFERENTIATING</text><rect fill="#F5F7FA" height="40" rx="12.5" ry="12.5" style="stroke:#334455;stroke-width:0.5;" width="81.3496" x="497.33" y="199.2883"/><text fill="#000000" font-family="Helvetica" font-size="12" lengthAdjust="spacing" textLength="71.3496" x="502.33" y="222.5285">VALIDATING</text><rect fill="#F5F7FA" height="40" rx="12.5" ry="12.5" style="stroke:#334455;stroke-width:0.5;" width="88.0234" x="727.99" y="199.2883"/><text fill="#000000" font-family="Helvetica" font-size="12" lengthAdjust="spacing" textLength="78.0234" x="732.99" y="222.5285">SPECIALIZED</text><rect fill="#F5F7FA" height="40" rx="12.5" ry="12.5" style="stroke:#334455;stroke-width:0.5;" width="80.0078" x="735" y="271.2883"/><text fill="#000000" font-family="Helvetica" font-size="12" lengthAdjust="spacing" textLength="70.0078" x="740" y="294.5285">EXECUTING</text><g class="end_entity" data-qualified-name=".end." data-source-line="23" id="ent0015"><ellipse cx="766" cy="363.2883" fill="none" rx="11" ry="11" style="stroke:#222222;stroke-width:1;"/><ellipse cx="766" cy="363.2883" fill="#222222" rx="6" ry="6" style="stroke:#222222;stroke-width:1;"/></g><rect fill="#F5F7FA" height="40" rx="12.5" ry="12.5" style="stroke:#334455;stroke-width:0.5;" width="74.0254" x="416.99" y="343.2883"/><text fill="#000000" font-family="Helvetica" font-size="12" lengthAdjust="spacing" textLength="64.0254" x="421.99" y="366.5285">ROLLBACK</text><rect fill="#F5F7FA" height="40" rx="12.5" ry="12.5" style="stroke:#334455;stroke-width:0.5;" width="52.0117" x="650.99" y="343.2883"/><text fill="#000000" font-family="Helvetica" font-size="12" lengthAdjust="spacing" textLength="42.0117" x="655.99" y="366.5285">FAILED</text><g class="entity" data-qualified-name="GMN2" data-source-line="32" id="ent0003"><path d="M441.01,43.4883 L441.01,138.2852 A0,0 0 0 0 441.01,138.2852 L534,138.2852 L538,198.8183 L542,138.2852 L634.9905,138.2852 A0,0 0 0 0 634.9905,138.2852 L634.9905,53.4883 L624.9905,43.4883 L441.01,43.4883 A0,0 0 0 0 441.01,43.4883" fill="#FEFFDD" style="stroke:#181818;stroke-width:0.5;"/><path d="M624.9905,43.4883 L624.9905,53.4883 L634.9905,53.4883 L624.9905,43.4883" fill="#FEFFDD" style="stroke:#181818;stroke-width:0.5;"/><text fill="#000000" font-family="sans-serif" font-size="12" lengthAdjust="spacing" textLength="134.2383" x="447.01" y="60.0898">Guards evaluated here:</text><text fill="#000000" font-family="sans-serif" font-size="12" lengthAdjust="spacing" textLength="124.459" x="447.01" y="74.2227">&#8226; f1_above_threshold</text><text fill="#000000" font-family="sans-serif" font-size="12" lengthAdjust="spacing" textLength="172.9805" x="447.01" y="88.3555">&#8226; improvement_over_baseline</text><text fill="#000000" font-family="sans-serif" font-size="12" lengthAdjust="spacing" textLength="169.0313" x="447.01" y="102.4883">&#8226; rollback_budget_remaining</text><text fill="#000000" font-family="sans-serif" font-size="12" lengthAdjust="spacing" textLength="155.9004" x="447.01" y="116.6211">Failures land in the journal</text><text fill="#000000" font-family="sans-serif" font-size="12" lengthAdjust="spacing" textLength="156.5859" x="447.01" y="130.7539">as GUARD_FAILURE events.</text></g><!--link *start* to UNDIFFERENTIATED--><g class="link" data-entity-1="ent0002" data-entity-2="ent0003" data-link-type="dependency" data-source-line="16" id="lnk4"><path d="M26.31,219.2883 C37.74,219.2883 43.16,219.2883 54.58,219.2883" fill="none" id="*start*-to-UNDIFFERENTIATED" style="stroke:#334455;stroke-width:1.3;"/><polygon fill="#334455" points="60.58,219.2883,51.58,215.2883,55.58,219.2883,51.58,223.2883,60.58,219.2883" style="stroke:#334455;stroke-width:1.3;"/></g><!--link UNDIFFERENTIATED to SENSING--><g class="link" data-entity-1="ent0003" data-entity-2="ent0005" data-link-type="dependency" data-source-line="17" id="lnk6"><path d="M191.48,219.2883 C202.83,219.2883 208.18,219.2883 219.52,219.2883" fill="none" id="UNDIFFERENTIATED-to-SENSING" style="stroke:#334455;stroke-width:1.3;"/><polygon fill="#334455" points="225.52,219.2883,216.52,215.2883,220.52,219.2883,216.52,223.2883,225.52,219.2883" style="stroke:#334455;stroke-width:1.3;"/></g><!--link SENSING to DIFFERENTIATING--><g class="link" data-entity-1="ent0005" data-entity-2="ent0007" data-link-type="dependency" data-source-line="18" id="lnk8"><path d="M290.48,219.2883 C302.05,219.2883 307.62,219.2883 319.19,219.2883" fill="none" id="SENSING-to-DIFFERENTIATING" style="stroke:#334455;stroke-width:1.3;"/><polygon fill="#334455" points="325.19,219.2883,316.19,215.2883,320.19,219.2883,316.19,223.2883,325.19,219.2883" style="stroke:#334455;stroke-width:1.3;"/></g><!--link DIFFERENTIATING to VALIDATING--><g class="link" data-entity-1="ent0007" data-entity-2="ent0009" data-link-type="dependency" data-source-line="19" id="lnk10"><path d="M442.95,219.2883 C461.02,219.2883 473.09,219.2883 491.16,219.2883" fill="none" id="DIFFERENTIATING-to-VALIDATING" style="stroke:#334455;stroke-width:1.3;"/><polygon fill="#334455" points="497.16,219.2883,488.16,215.2883,492.16,219.2883,488.16,223.2883,497.16,219.2883" style="stroke:#334455;stroke-width:1.3;"/></g><!--link VALIDATING to SPECIALIZED--><g class="link" data-entity-1="ent0009" data-entity-2="ent0011" data-link-type="dependency" data-source-line="21" id="lnk12"><path d="M579.03,219.2883 C620.71,219.2883 679.05,219.2883 721.83,219.2883" fill="none" id="VALIDATING-to-SPECIALIZED" style="stroke:#334455;stroke-width:1.3;"/><polygon fill="#334455" points="727.83,219.2883,718.83,215.2883,722.83,219.2883,718.83,223.2883,727.83,219.2883" style="stroke:#334455;stroke-width:1.3;"/><text fill="#000000" font-family="sans-serif" font-size="12" lengthAdjust="spacing" textLength="96.1816" x="605.538" y="184.8898">F1 &gt;= threshold</text><text fill="#000000" font-family="sans-serif" font-size="12" font-weight="bold" lengthAdjust="spacing" textLength="27.5742" x="599.33" y="199.0227">AND</text><text fill="#000000" font-family="sans-serif" font-size="12" lengthAdjust="spacing" textLength="77.2266" x="630.7011" y="199.0227">improvement</text><text fill="#000000" font-family="sans-serif" font-size="12" lengthAdjust="spacing" textLength="77.0273" x="615.1152" y="213.1555">over baseline</text></g><!--link SPECIALIZED to EXECUTING--><g class="link" data-entity-1="ent0011" data-entity-2="ent0013" data-link-type="dependency" data-source-line="22" id="lnk14"><path d="M772.84,239.7883 C773.25,249.4983 773.4904,255.2039 773.9104,264.9039" fill="none" id="SPECIALIZED-to-EXECUTING" style="stroke:#334455;stroke-width:1.3;"/><polygon fill="#334455" points="774.17,270.8983,777.7769,261.7337,773.9537,265.903,769.7844,262.0797,774.17,270.8983" style="stroke:#334455;stroke-width:1.3;"/></g><!--link EXECUTING to *end*--><g class="link" data-entity-1="ent0013" data-entity-2="ent0015" data-link-type="dependency" data-source-line="23" id="lnk16"><path d="M772.49,311.7883 C770.81,324.8983 769.4285,335.6877 768.0685,346.2177" fill="none" id="EXECUTING-to-*end*" style="stroke:#334455;stroke-width:1.3;"/><polygon fill="#334455" points="767.3,352.1683,772.4199,343.7548,767.9405,347.2095,764.4858,342.7301,767.3,352.1683" style="stroke:#334455;stroke-width:1.3;"/></g><!--link VALIDATING to ROLLBACK--><g class="link" data-entity-1="ent0009" data-entity-2="ent0017" data-link-type="dependency" data-source-line="25" id="lnk18"><path d="M531.13,239.6183 C523.81,259.0183 511.21,289.3683 496,313.2883 C489.39,323.6883 484.7167,329.7411 476.9667,338.3411" fill="none" id="VALIDATING-to-ROLLBACK" style="stroke:#334455;stroke-width:1.3;"/><polygon fill="#334455" points="472.95,342.7983,481.9464,338.7903,476.2972,339.084,476.0035,333.4347,472.95,342.7983" style="stroke:#334455;stroke-width:1.3;"/><text fill="#000000" font-family="sans-serif" font-size="12" lengthAdjust="spacing" textLength="91.5645" x="519.08" y="288.8898">rollback budget</text><text fill="#000000" font-family="sans-serif" font-size="12" lengthAdjust="spacing" textLength="58.7402" x="535.4921" y="303.0227">remaining</text></g><!--reverse link DIFFERENTIATING to ROLLBACK--><g class="link" data-entity-1="ent0007" data-entity-2="ent0017" data-link-type="dependency" data-source-line="26" id="lnk20"><path d="M371.4694,245.2783 C362.7394,265.0783 355.83,290.4883 369,313.2883 C379.31,331.1383 398.86,343.0583 416.62,350.6683" fill="none" id="DIFFERENTIATING-backto-ROLLBACK" style="stroke:#334455;stroke-width:1.3;"/><polygon fill="#334455" points="373.89,239.7883,366.599,246.4096,371.8728,244.3633,373.9191,249.6371,373.89,239.7883" style="stroke:#334455;stroke-width:1.3;"/><text fill="#000000" font-family="sans-serif" font-size="12" lengthAdjust="spacing" textLength="72.082" x="394.4863" y="281.8898">re-plan with</text><text fill="#000000" font-family="sans-serif" font-size="12" lengthAdjust="spacing" textLength="121.0547" x="370" y="296.0227">cross-check-derived</text><text fill="#000000" font-family="sans-serif" font-size="12" lengthAdjust="spacing" textLength="71.8242" x="394.6152" y="310.1555">adjustments</text></g><!--link VALIDATING to FAILED--><g class="link" data-entity-1="ent0009" data-entity-2="ent0021" data-link-type="dependency" data-source-line="28" id="lnk22"><path d="M578.13,239.6083 C592.08,247.5483 607.18,257.6283 619,269.2883 C641.08,291.0683 655.9443,317.4184 665.7243,337.6084" fill="none" id="VALIDATING-to-FAILED" style="stroke:#334455;stroke-width:1.3;"/><polygon fill="#334455" points="668.34,343.0083,668.0164,333.1647,666.1603,338.5084,660.8166,336.6523,668.34,343.0083" style="stroke:#334455;stroke-width:1.3;"/><text fill="#000000" font-family="sans-serif" font-size="12" lengthAdjust="spacing" textLength="41.209" x="662.0806" y="288.8898">budget</text><text fill="#000000" font-family="sans-serif" font-size="12" lengthAdjust="spacing" textLength="60.4102" x="652.48" y="303.0227">exhausted</text></g><!--link FAILED to *end*--><g class="link" data-entity-1="ent0021" data-entity-2="ent0015" data-link-type="dependency" data-source-line="29" id="lnk23"><path d="M703.42,363.2883 C720.53,363.2883 731.64,363.2883 748.76,363.2883" fill="none" id="FAILED-to-*end*" style="stroke:#334455;stroke-width:1.3;"/><polygon fill="#334455" points="754.76,363.2883,745.76,359.2883,749.76,363.2883,745.76,367.2883,754.76,363.2883" style="stroke:#334455;stroke-width:1.3;"/></g><?plantuml-src RLDjYjim4FslKmpqJnl8GhfT2e4kU1CxDGrkoKSfROfHh4ciZImPIKvsMmfxY9wWHzkJT9naOs_QNvRdFSsRUJFoqYk4gSS2WZLg3uyFls4iLvZTPtk0UtJ0jO2PvTf9BursZBcDr2Mtl01NC-0d0xZXsMPjJQN5m2XZuKLq5RsDWXenLg0zHY_VN54eCjedl41uZsgBNcRy69pA7mYzr-nNMoFdmkoaNiEAAuSjX5jhThDSPXkDpa7lul8SRAasYC0LhvHlwx5S2WGiIdzFiCkiBEjU6VlM-GvTAzUvxrx3F1d6KHHEmcGM1xDmoCu33NKQ9jCu6R7Zjm7Q5sh2sNz3_1oCu-61mvfpI-5JE8Wf_fLa-n3ruFeT-DoYouqI2ztf1Ccmqm5PbDPiiQ3fBZGTB2ovGoKridQ6KzhmIpYOxvNwO74hSVSoCm9ViGOuSScSvxNHd3J59n_7uvjWyA5EOPHQqch0iX9hf18i5bngcYOxiRfL-QynU_bkgRY6dVJvGcVMEDVDSimsNTedkKNgaelRolcwEVVVIg8W7k_zUPB7kvpJ3HJi23rlHXjQPszACAls00165RV20MwvgcZb1UHeiK_0uyCVMFLIlYHlqvF_Hw1bVbfxdvwyF-1FxgI7yjB677eENAgAqe6gtv_KD5o4MrDPpHN1tC5e7ao6QTt7V19IQRKB5mo9NRV1_W80?></g></svg>